Coordinates
version=1
nRows=16
nColumns=40
inDegrees=yes

Units are S.I. units (second, meters, Newtons, ...)
Angles are in degrees.

endheader
time	pelvis_tilt	pelvis_list	pelvis_rotation	pelvis_tx	pelvis_ty	pelvis_tz	hip_flexion_r	hip_adduction_r	hip_rotation_r	knee_angle_r	knee_angle_r_beta	ankle_angle_r	subtalar_angle_r	mtp_angle_r	hip_flexion_l	hip_adduction_l	hip_rotation_l	knee_angle_l	knee_angle_l_beta	ankle_angle_l	subtalar_angle_l	mtp_angle_l	lumbar_extension	lumbar_bending	lumbar_rotation	arm_flex_r	arm_add_r	arm_rot_r	elbow_flex_r	pro_sup_r	wrist_flex_r	wrist_dev_r	arm_flex_l	arm_add_l	arm_rot_l	elbow_flex_l	pro_sup_l	wrist_flex_l	wrist_dev_l
     27.02000000	     -4.28176472	     -6.89767106	      1.33091799	      1.02925946	      0.93004235	      0.47701172	      7.33180712	      7.41710865	    -15.34227139	     10.57595842	     10.57595842	      9.29408259	     -0.53328338	     -4.81637500	     39.41863869	    -14.22478975	      1.63039515	     56.19310133	     56.19310133	      6.40636239	    -19.29393939	     19.01786548	     -9.73507403	      6.75005707	      3.48393363	     25.70889286	    -14.34750825	      0.20300511	     52.77808371	     45.30579337	      0.00000000	      0.00000000	      5.43103087	     -6.63067932	      0.96049644	     21.56519265	     45.93947295	      0.00000000	      0.00000000
     27.03171429	     -4.43156827	     -6.90401491	      1.43185918	      1.02869148	      0.92981782	      0.47681659	      6.75378783	      7.47208999	    -15.55800283	     10.03633484	     10.03633484	      9.51812064	      0.07726372	     -4.85905831	     39.70624194	    -13.77099901	      1.67895076	     52.75898024	     52.75898024	      6.54266536	    -19.17862431	     18.37168111	     -9.74792982	      6.79054850	      3.60600296	     27.20609209	    -14.80598999	      0.73467132	     55.88727952	     45.18877734	      0.00000000	      0.00000000	      3.91986982	     -6.66628876	      1.44023001	     21.87376261	     45.78920088	      0.00000000	      0.00000000
     27.04342857	     -4.55606594	     -6.83857416	      1.49155854	      1.02815807	      0.92959431	      0.47646229	      6.23196367	      7.43097482	    -15.59959160	      9.66958250	      9.66958250	      9.75623453	      0.36969847	     -4.90528372	     39.77873853	    -13.15795938	      1.86761583	     49.18228338	     49.18228338	      6.81451614	    -18.97176757	     18.05506470	     -9.73116133	      6.73095644	      3.66280189	     29.12335830	    -14.86590865	      0.64988279	     57.48299037	     45.14972794	      0.00000000	      0.00000000	      2.64215742	     -6.64352562	      1.67245318	     21.59654368	     45.71105206	      0.00000000	      0.00000000
     27.05514286	     -4.80869432	     -6.80064740	      1.52884965	      1.02761546	      0.92906631	      0.47602309	      5.88262954	      7.40315949	    -15.62983502	      9.36801085	      9.36801085	     10.00068829	      0.60056768	     -4.98092481	     39.90608866	    -12.53682205	      2.20499491	     45.59199730	     45.59199730	      7.14246470	    -18.52869873	     17.92760923	     -9.54437133	      6.68422084	      3.95187837	     30.99344014	    -15.13873490	      0.47527057	     58.66302530	     45.12653158	      0.00000000	      0.00000000	      1.51660656	     -6.53430919	      1.76389535	     21.35916102	     45.66623989	      0.00000000	      0.00000000
     27.06685714	     -4.82666479	     -6.78131117	      1.64949943	      1.02737973	      0.92879543	      0.47532679	      5.12289387	      7.38373260	    -16.04421851	      8.81869381	      8.81869381	     10.29570640	      1.55281261	     -5.04192648	     39.59154420	    -11.93445372	      2.61083032	     41.86024377	     41.86024377	      7.03531886	    -17.85599042	     16.36609266	     -9.66269568	      6.76294459	      3.56669344	     32.69681724	    -14.81938481	      0.51668575	     61.16104352	     45.05255544	      0.00000000	      0.00000000	     -0.12985262	     -6.64018324	      2.04406900	     21.63077289	     45.55756674	      0.00000000	      0.00000000
     27.07857143	     -4.98477322	     -6.79724955	      1.70278692	      1.02723307	      0.92816134	      0.47466266	      4.63106905	      7.35800923	    -16.52974337	      8.52352149	      8.52352149	     10.72816977	      2.60998183	     -4.92440948	     39.26505960	    -11.52634409	      2.76081596	     38.04316889	     38.04316889	      6.15575901	    -16.89570144	     12.57128544	     -9.60871368	      6.79759550	      3.91073181	     33.88442316	    -15.34301232	      0.63374102	     63.82907481	     44.98517877	      0.00000000	      0.00000000	     -1.82495032	     -6.83956147	      2.99902858	     23.17272209	     45.29591262	      0.00000000	      0.00000000
     27.09028571	     -5.22827816	     -6.98157316	      1.76651481	      1.02700775	      0.92722150	      0.47399733	      4.34489272	      7.54327527	    -16.54445078	      8.38759834	      8.38759834	     11.02668778	      2.66547755	     -5.04449729	     39.24049434	    -11.23908457	      3.17295255	     34.83523391	     34.83523391	      6.72173197	    -15.54923638	     12.67247119	     -9.33418121	      7.05440954	      4.25290278	     35.55043460	    -15.68181247	      0.38633036	     64.54435517	     44.97930881	      0.00000000	      0.00000000	     -2.82060909	     -6.72464735	      3.07814894	     22.84273073	     45.26226246	      0.00000000	      0.00000000
     27.10200000	     -5.17901210	     -6.80987701	      1.82692764	      1.02730171	      0.92689272	      0.47313236	      3.46911954	      7.38680870	    -16.65395066	      7.83317142	      7.83317142	     11.34966255	      3.26361702	     -5.01052706	     38.60602937	    -10.82519656	      2.82720085	     31.62131525	     31.62131525	      7.25104941	    -13.71433308	     12.35447934	     -9.49034995	      6.87219453	      3.90738921	     37.09978950	    -15.14125031	      0.29976748	     66.10519556	     44.94187083	      0.00000000	      0.00000000	     -4.09748036	     -6.79680161	      3.34597294	     22.65034143	     45.18332910	      0.00000000	      0.00000000
     27.11371429	     -5.19659919	     -6.90572936	      1.92376603	      1.02772621	      0.92614597	      0.47227580	      2.73559919	      7.49272974	    -16.94171519	      7.42174458	      7.42174458	     11.72315581	      3.98747390	     -4.93184035	     38.19543921	    -10.66382077	      2.58403363	     28.93610920	     28.93610920	      7.63410816	    -12.08239863	     11.96768336	     -9.39680235	      6.99333901	      3.80018202	     38.49466635	    -14.96934407	      0.15333772	     67.64432697	     44.91033428	      0.00000000	      0.00000000	     -5.39498386	     -6.83419863	      3.67778854	     22.87314347	     45.08819888	      0.00000000	      0.00000000
     27.12542857	     -5.27174993	     -6.91948269	      1.98328864	      1.02825320	      0.92528944	      0.47130735	      2.14324455	      7.48970952	    -17.02971845	      7.17595143	      7.17595143	     12.11524626	      4.35139559	     -4.91105508	     37.79158804	    -10.42944304	      2.18346785	     26.59924393	     26.59924393	      7.94473244	    -10.93185358	     12.02822491	     -9.23721542	      7.00080859	      3.84657181	     39.70133038	    -14.93075815	      0.01051763	     68.70330968	     44.89069328	      0.00000000	      0.00000000	     -6.44777063	     -6.86363326	      3.87186008	     22.85535520	     45.02922734	      0.00000000	      0.00000000
     27.13714286	     -5.30885016	     -7.04296350	      2.09512358	      1.02896970	      0.92428618	      0.47023856	      1.44478868	      7.59279288	    -17.45933928	      6.85065971	      6.85065971	     12.71425818	      5.32501902	     -4.42000989	     37.47107278	    -10.33308423	      1.60988081	     24.88374152	     24.88374152	      8.18955499	     -9.92325768	     11.77914051	     -9.17916888	      7.16050484	      3.73691671	     40.62181626	    -14.77983605	     -0.19589196	     70.65134192	     44.86056539	      0.00000000	      0.00000000	     -7.77025500	     -7.00147937	      4.63492328	     23.67848583	     44.85906650	      0.00000000	      0.00000000
     27.14885714	     -5.34238529	     -7.02813053	      2.14831344	      1.02985980	      0.92328531	      0.46906092	      0.87562853	      7.53786432	    -17.38327038	      6.78958402	      6.78958402	     13.14735154	      5.32804638	     -4.45519514	     37.05081062	    -10.10932762	      0.90990569	     23.52212391	     23.52212391	      8.22125059	     -9.62853114	     12.04768983	     -8.92772282	      7.16689627	      3.82714719	     41.66340668	    -14.80976284	     -0.34135126	     71.27913332	     44.85317391	      0.00000000	      0.00000000	     -8.54582885	     -7.01125989	      4.77187997	     23.41775764	     44.82331649	      0.00000000	      0.00000000
     27.16057143	     -5.40785154	     -7.07836541	      2.20494167	      1.03083183	      0.92205282	      0.46785711	      0.33264362	      7.54317852	    -17.31651876	      6.71996646	      6.71996646	     13.59419002	      5.39958273	     -4.49140249	     36.80117314	     -9.96873563	      0.19066344	     22.82438321	     22.82438321	      8.18827652	     -9.68241811	     12.21500198	     -8.70215946	      7.17055398	      3.83467077	     42.52277784	    -14.77819912	     -0.47161683	     71.91269437	     44.84288132	      0.00000000	      0.00000000	     -9.30227809	     -7.01035975	      4.85850870	     23.14742905	     44.79602645	      0.00000000	      0.00000000
     27.17228571	     -5.35417169	     -7.01540040	      2.27209940	      1.03215574	      0.92100244	      0.46658250	     -0.36747741	      7.42862869	    -17.31979514	      6.66764881	      6.66764881	     14.19302791	      5.58135438	     -4.27937909	     36.27192266	     -9.73995587	     -0.57311690	     22.33305037	     22.33305037	      7.93570512	    -10.01269295	     12.24986381	     -8.58129176	      7.06601537	      3.50773837	     43.14580667	    -14.30671007	     -0.58761275	     73.17613511	     44.81546443	      0.00000000	      0.00000000	    -10.11664054	     -7.05484262	      5.09722976	     22.90752418	     44.74454204	      0.00000000	      0.00000000
     27.18400000	     -5.39551528	     -7.00859652	      2.28622736	      1.03350160	      0.91962554	      0.46525504	     -0.89608020	      7.34104014	    -17.21238032	      6.73749530	      6.73749530	     14.72932234	      5.59481257	     -4.28517299	     35.97808607	     -9.61016152	     -1.30236583	     22.42841094	     22.42841094	      7.61914151	    -10.53118395	     12.28889681	     -8.30241776	      7.02544779	      3.54738852	     43.69007361	    -14.30999881	     -0.72023429	     73.71881758	     44.80722814	      0.00000000	      0.00000000	    -10.68044388	     -7.08239037	      5.16373731	     22.70853548	     44.72500729	      0.00000000	      0.00000000
     27.19571429	     -5.37592251	     -6.98163255	      2.32439864	      1.03505689	      0.91833989	      0.46380456	     -1.35810894	      7.17221750	    -17.22605330	      7.16141020	      7.16141020	     15.90861862	      5.81347851	     -2.70587466	     35.41041773	     -9.39112735	     -1.69671471	     22.38600013	     22.38600013	      6.23712503	    -11.80132209	     10.50634762	     -8.15276781	      6.94153094	      3.81437970	     43.37989660	    -14.45547591	     -1.47586749	     76.08444069	     44.79930518	      0.00000000	      0.00000000	    -11.04215072	     -7.26563866	      6.10066912	     22.64481191	     44.60147782	      0.00000000	      0.00000000
